<?xml version="1.0" encoding="utf-8" standalone="yes"?>
<!DOCTYPE svg PUBLIC "-//W3C//DTD SVG 1.1//EN" "http://www.w3.org/Graphics/SVG/1.1/DTD/svg11.dtd">
<svg xmlns="http://www.w3.org/2000/svg" xmlns:xlink="http://www.w3.org/1999/xlink" xmlns:dc="http://purl.org/dc/elements/1.1/" xmlns:cc="http://web.resource.org/cc/" xmlns:rdf="http://www.w3.org/1999/02/22-rdf-syntax-ns#" xmlns:sodipodi="http://sodipodi.sourceforge.net/DTD/sodipodi-0.dtd" xmlns:inkscape="http://www.inkscape.org/namespaces/inkscape" version="1.1" baseProfile="full" width="22.67px" height="24.33px" viewBox="0 0 68 73" preserveAspectRatio="xMidYMid meet" id="svg_document" style="zoom: 1;" visibility="visible"><g id="main_group" transform="translate(7.82 0) scale(1 1)"><path d="M40.7715,28.7109 L103.027,28.7109 Q110.84,28.7109 114.697,24.707 Q118.555,20.7031 118.555,12.207 L118.555,-35.3516 Q118.555,-43.75 114.697,-47.7295 Q110.84,-51.709 103.027,-51.709 L40.7715,-51.709 Q33.0078,-51.709 29.1504,-47.7295 Q25.293,-43.75 25.293,-35.3516 L25.293,12.207 Q25.293,20.7031 29.1504,24.707 Q33.0078,28.7109 40.7715,28.7109 M46.0938,13.2812 Q44.2383,13.2812 43.2861,12.3047 Q42.334,11.3281 42.334,9.17969 L42.334,-32.2266 Q42.334,-34.4238 43.2861,-35.376 Q44.2383,-36.3281 46.0938,-36.3281 L97.8027,-36.3281 Q99.6582,-36.3281 100.562,-35.376 Q101.465,-34.4238 101.465,-32.2266 L101.465,9.17969 Q101.465,11.3281 100.562,12.3047 Q99.6582,13.2812 97.8027,13.2812 M37.8418,-45.2637 L54.0527,-45.2637 L54.0527,-66.0156 Q54.0527,-72.2168 56.3965,-76.6113 Q58.7402,-81.0059 62.793,-83.3496 Q66.8457,-85.6934 71.9238,-85.6934 Q76.9531,-85.6934 81.0059,-83.3496 Q85.0586,-81.0059 87.4268,-76.6113 Q89.7949,-72.2168 89.7949,-66.0156 L89.7949,-45.2637 L105.957,-45.2637 L105.957,-65.1367 Q105.957,-74.2676 103.101,-81.0547 Q100.244,-87.8418 95.3857,-92.3584 Q90.5273,-96.875 84.4482,-99.0967 Q78.3691,-101.318 71.9238,-101.318 Q65.4297,-101.318 59.3506,-99.0967 Q53.2715,-96.875 48.4375,-92.3584 Q43.6035,-87.8418 40.7227,-81.0547 Q37.8418,-74.2676 37.8418,-65.1367 " id="path1" transform="scale(0.561413654964396 0.561413654964396) translate(-25.292999 101.318001)" class="multicolor-0:systemGrayColor SFSymbolsPreview8E8E93"></path></g></svg>